<svg 
    width="128"
    height="128"
    viewBox="0 0 33.867 33.867"
    xmlns="http://www.w3.org/2000/svg"
>
    <path 
        d="M28.385 1.695v1.139c-2.387-.011-3.74.002-7.04.002-3.39 0-5.65 2.467-5.65 6.152v3.136h-.027v8.125c0 5.257-1.142 6.83-4.532 6.83-3.463 0-4.568-1.573-4.568-6.83V3.067h-5.6V20.25c0 8.735 2.763 11.922 10.427 11.922 6.926 0 9.656-2.907 9.891-10.764h.047V19.75h4.453v1.672l4.514-3.97-4.514-3.968v1.672h-4.453V10.27c0-1.49.552-2.112 1.99-2.112h5.062v1.474l4.514-3.969z"
        fill="#805ad5"
    />
</svg>